<?xml version="1.0" encoding="UTF-8"?>
<svg width="20px" height="20px" viewBox="0 0 20 20" version="1.1" xmlns="http://www.w3.org/2000/svg" xmlns:xlink="http://www.w3.org/1999/xlink">
    <!-- Generator: Sketch 51.2 (57519) - http://www.bohemiancoding.com/sketch -->
    <title>Combined Shape</title>
    <desc>Created with Sketch.</desc>
    <defs></defs>
    <g id="Symbols" stroke="none" stroke-width="1" fill="none" fill-rule="evenodd">
        <g id="FOOTER" transform="translate(-1317.000000, -1169.000000)" fill="#FFFFFF">
            <g id="Group" transform="translate(1182.000000, 1154.000000)">
                <g id="Group-6" transform="translate(120.000000, 0.000000)">
                    <path d="M20.8770128,15.0601777 C21.9436191,15.0115116 22.2841234,15 24.9999802,15 C27.7158369,15 28.0563809,15.0115116 29.1229475,15.0601777 C30.1873706,15.1087645 30.9142666,15.277786 31.55038,15.5250069 C32.2079684,15.7805637 32.7656443,16.122497 33.3215737,16.6784263 C33.877503,17.2343557 34.2194363,17.7920316 34.4749931,18.44962 C34.722214,19.0857334 34.8912355,19.8126294 34.9398223,20.8770525 C34.9884884,21.9436191 35,22.2841631 35,25.0000198 C35,27.7158766 34.9884884,28.0564206 34.9398223,29.1229872 C34.8912355,30.1874103 34.722214,30.9143063 34.4749931,31.5504197 C34.2194363,32.2080081 33.877503,32.765684 33.3215737,33.3216134 C32.7656443,33.8775427 32.2079684,34.219476 31.55038,34.4750328 C30.9142666,34.7222536 30.1873706,34.8912752 29.1229475,34.939862 C28.0563809,34.9885281 27.7158369,35 24.9999802,35 C22.2841234,35 21.9436191,34.9885281 20.8770128,34.939862 C19.8125897,34.8912752 19.0856937,34.7222536 18.4495803,34.4750328 C17.7919919,34.219476 17.234316,33.8775427 16.6783866,33.3216134 C16.1224573,32.765684 15.780524,32.2079684 15.5249672,31.5504197 C15.2777464,30.9143063 15.1087248,30.1874103 15.060138,29.1229872 C15.0114719,28.0564206 15,27.7158766 15,25.0000198 C15,22.2841631 15.0114719,21.9436191 15.060138,20.8770525 C15.1087248,19.8126294 15.2777464,19.0857334 15.5249672,18.44962 C15.780524,17.7920316 16.1224573,17.2343557 16.6783866,16.6784263 C17.234316,16.122497 17.7919919,15.7805637 18.4495803,15.5250069 C19.0856937,15.277786 19.8125897,15.1087645 20.8770128,15.0601777 Z M25,20 C22.2385885,20 20,22.2385885 20,25 C20,27.7614115 22.2385885,30 25,30 C27.7614115,30 30,27.7614115 30,25 C30,22.2385885 27.7614115,20 25,20 Z M22,25 C22,23.3431657 23.3431657,22 25,22 C26.6568343,22 28,23.3431657 28,25 C28,26.6568343 26.6568343,28 25,28 C23.3431657,28 22,26.6568343 22,25 Z M31.0000165,20 C31.5523064,20 32,19.5522734 32,18.9999835 C32,18.4476936 31.5523064,18 31.0000165,18 C30.4477266,18 30,18.4476936 30,18.9999835 C30,19.5522734 30.4477266,20 31.0000165,20 Z" id="Combined-Shape"></path>
                </g>
            </g>
        </g>
    </g>
</svg>