<?xml version="1.0" encoding="UTF-8"?>
<svg width="22px" height="13px" viewBox="0 0 22 13" version="1.1" xmlns="http://www.w3.org/2000/svg" xmlns:xlink="http://www.w3.org/1999/xlink">
    <!-- Generator: Sketch 51.2 (57519) - http://www.bohemiancoding.com/sketch -->
    <title>Fill 4</title>
    <desc>Created with Sketch.</desc>
    <defs></defs>
    <g id="Symbols" stroke="none" stroke-width="1" fill="none" fill-rule="evenodd">
        <g id="FOOTER" transform="translate(-1256.000000, -1173.000000)" fill="#FFFFFF">
            <g id="Group" transform="translate(1182.000000, 1154.000000)">
                <g id="Group-7" transform="translate(60.000000, 0.000000)">
                    <path d="M32.2757179,25.3740656 C32.2757179,25.3740656 35.1744927,21.2474001 35.4625431,19.891209 C35.558506,19.40689 35.3473391,19.1355212 34.8481218,19.1355212 L32.3333603,19.1355212 C31.7574212,19.1355212 31.5462543,19.3873899 31.3734888,19.7555246 C31.3734888,19.7555246 30.0138392,22.6793069 28.3595099,24.5216936 C27.8284398,25.1173015 27.5584178,25.296555 27.2652742,25.296555 C27.0288028,25.296555 26.9197431,25.0976383 26.9197431,24.5603673 L26.9197431,19.8524537 C26.9197431,19.1937766 26.8429404,19 26.3054835,19 L22.2740716,19 C21.9668609,19 21.7748543,19.1802326 21.7748543,19.4261452 C21.7748543,20.046475 22.7155656,20.1865652 22.7155656,21.8673219 L22.7155656,25.3353103 C22.7155656,26.0328243 22.6771643,26.3040299 22.3507934,26.3040299 C21.4869656,26.3040299 19.4328583,23.3011052 18.281061,19.891209 C18.050653,19.1937766 17.8010848,19 17.148343,19 L14.6335815,19 C14.2688093,19 14,19.2517871 14,19.6198402 C14,20.2979358 14.787106,23.4366264 17.8778874,27.6408842 C19.951155,30.4694508 22.6771643,32 25.1343642,32 C26.6317735,32 26.9965457,31.7482129 26.9965457,31.108791 L26.9965457,28.9389015 C26.9965457,28.3964088 27.2077126,28.1639585 27.5148424,28.1639585 C27.8603735,28.1639585 28.4702674,28.2759817 29.8953206,29.6945077 C31.5846556,31.321986 31.6998596,32 32.6214107,32 L35.443302,32 C35.7312715,32 36,31.8643972 36,31.3800782 C36,30.7406564 35.1744927,29.5976602 33.9074914,28.2413875 C33.3891947,27.5439551 32.5445272,26.7884305 32.2757179,26.4397143 C31.8918663,26.0328243 32.0069894,25.8002109 32.2757179,25.3740656" id="Fill-4"></path>
                </g>
            </g>
        </g>
    </g>
</svg>