<svg width="22px" height="16px" viewBox="0 0 22 16" version="1.1" xmlns="http://www.w3.org/2000/svg" xmlns:xlink="http://www.w3.org/1999/xlink">
    <g id="Symbols" stroke="none" stroke-width="1" fill="none" fill-rule="evenodd">
        <g id="Share" transform="translate(-254.000000, -17.000000)" fill="#FFFFFF">
            <path d="M262.728867,27.6643692 L262.727889,21.4398769 L268.672533,24.5628308 L262.728867,27.6643692 Z M275.780489,20.3614769 C275.780489,20.3614769 275.565378,18.8348308 274.905867,18.1623385 C274.069378,17.2801231 273.131444,17.2759385 272.701467,17.2242462 C269.622933,17 265.004889,17 265.004889,17 L264.995111,17 C264.995111,17 260.377311,17 257.298533,17.2242462 C256.868556,17.2759385 255.931111,17.2801231 255.094378,18.1623385 C254.434622,18.8348308 254.22,20.3614769 254.22,20.3614769 C254.22,20.3614769 254,22.1542154 254,23.9469538 L254,25.6279385 C254,27.4204308 254.22,29.2131692 254.22,29.2131692 C254.22,29.2131692 254.434622,30.7398154 255.094378,31.4123077 C255.931111,32.2947692 257.030378,32.2664615 257.52,32.3590154 C259.280244,32.5291077 265,32.5817846 265,32.5817846 C265,32.5817846 269.622933,32.5746462 272.701467,32.3506462 C273.131444,32.2989538 274.069378,32.2947692 274.905867,31.4123077 C275.565378,30.7398154 275.780489,29.2131692 275.780489,29.2131692 C275.780489,29.2131692 276,27.4204308 276,25.6279385 L276,23.9469538 C276,22.1542154 275.780489,20.3614769 275.780489,20.3614769 L275.780489,20.3614769 Z" id="Fill-4"></path>
        </g>
    </g>
</svg>